<svg width="210mm" height="297mm" version="1.1" viewBox="0 0 210 297" xmlns="http://www.w3.org/2000/svg">
 <circle cx="107.35" cy="154.21" r="39.809" fill="#db1820" style="paint-order:stroke fill markers"/>
 <path d="m132.33 159.57c0 13.838-11.052 25.056-24.685 25.056-13.633 0-24.685-11.218-24.685-25.056 0-8.8617 4.5322-19.789 11.372-26.503 0.2931-0.2876 1.3641-3.0831 2.4791-4.6972 0.8096-1.1721-1.0831 8.7785 3.0174-2.0731 0.4-1.0586 0.4823-1.6089 0.6918-1.775 2.0449-1.6048 1.1782 4.9366 3.0037 4.0562 1.4094-0.6798-3.069-7.036-1.4936-7.036 1.1446 0 7.8688 5.5357 8.9886 5.6987 2.6152 0.3805-10.023-10.753 8.3355 4.3676 7.7909 6.4167 12.975 18.425 12.975 27.962z" fill="#1a1a1a" style="paint-order:stroke fill markers"/>
 <g fill="#fff">
  <path d="m95.408 144.66c1.597 0.6383 3.1357 1.1475 4.6218 1.5399 0.7318 0.19321-0.6162-0.8821 0.091-0.74409 0.6117 0.1195 3.2815 1.4591 3.8755 1.5392 0.6842 0.092 3.0579 1.1913 3.7198 1.2342 0.958 0.062 0.1925-0.9579 1.1072-0.9917 0.601-0.022 4.1903-1.6146 4.7741-1.6751 0.7144-0.074-1.5811 1.3744-0.8906 1.2471 2.3966-0.44169 4.655-1.1902 6.8183-2.1495 2.6372-1.1694 4.9696 3.2783 4.9696 7.3505 0 0.3515-0.017 0.69709-0.049 1.0351-0.056 0.58951-0.1584 1.1561-0.3022 1.6914-0.7293 2.7145-2.5178 4.624-4.6189 4.624h-24.117c-2.7531 0-4.9696-3.2783-4.9696-7.3505 0-4.0722 2.3118-8.4128 4.9696-7.3505z" style="paint-order:stroke fill markers"/>
  <ellipse cx="107.66" cy="167.44" rx="14.315" ry="14.762" stroke="#1a1a1a" stroke-linecap="round" stroke-linejoin="round" stroke-miterlimit="2.8" style="paint-order:stroke fill markers"/>
  <rect x="95.541" y="148.69" width="23.567" height="8.6826" style="paint-order:stroke fill markers"/>
 </g>
 <ellipse transform="matrix(-.91856 .39529 .39529 .91856 0 0)" cx="-44.641" cy="186.07" rx="5.2019" ry="3.1955" fill="#1a1a1a" style="paint-order:stroke fill markers"/>
 <ellipse transform="scale(-1,1)" cx="-113.99" cy="153.59" rx="1.3078" ry="1.2145" fill="none" stroke="#fff" stroke-linecap="round" stroke-linejoin="round" stroke-miterlimit="2.8" stroke-width="1.2" style="paint-order:stroke fill markers"/>
 <g fill="#1a1a1a">
  <path transform="matrix(-.90592 -.42345 .15385 -.98809 0 0)" d="m-130.08-107.91a3.0515 2.9739 0 0 1-2.5116 3.387 3.0515 2.9739 0 0 1-3.5071-2.4044l3.0029-0.52861z" style="paint-order:stroke fill markers"/>
  <path transform="matrix(.90592 -.42345 -.15385 -.98809 0 0)" d="m91.146-202.71a3.0515 2.9739 0 0 1-2.5116 3.387 3.0515 2.9739 0 0 1-3.5071-2.4044l3.0029-0.52861z" style="paint-order:stroke fill markers"/>
  <path d="m91.963 169.97c10.45 0.63 20.989 4.8593 30.045-1.2711l0.5396 2.6185c-8.4334 6.7183-19.83 1.9866-30.585 1.2984z" style="paint-order:stroke fill markers"/>
  <ellipse transform="rotate(23.284)" cx="153.12" cy="100.97" rx="5.2019" ry="3.1955" style="paint-order:stroke fill markers"/>
 </g>
 <ellipse cx="101.51" cy="153.59" rx="1.3078" ry="1.2145" fill="none" stroke="#fff" stroke-linecap="round" stroke-linejoin="round" stroke-miterlimit="2.8" stroke-width="1.2" style="paint-order:stroke fill markers"/>
</svg>
